<?xml version="1.0" encoding="UTF-8"?>
<svg version="1.1" xmlns="http://www.w3.org/2000/svg" width="1080" height="1080" viewBox="200 300 700 400">
<path d="M0 0 C2.34119243 -0.00963057 4.68147624 -0.04069735 7.02246094 -0.07226562 C37.31597562 -0.2850077 66.00578668 9.38052066 88.24902344 30.17773438 C100.0535709 42.6035738 105.75375645 58.75529894 105.90527344 75.74414062 C104.94647277 97.19730546 95.8493502 113.58913661 80.87402344 128.24023438 C80.09542969 129.03945313 79.31683594 129.83867187 78.51464844 130.66210938 C58.46643995 150.15726384 30.86027677 158.03799324 4.24511719 163.56445312 C1.71123602 164.07887943 1.71123602 164.07887943 -0.12597656 166.24023438 C-1.02833873 172.76000426 1.17096776 176.0622195 4.81152344 181.11523438 C5.91576278 182.7076319 7.01992498 184.30008292 8.12402344 185.89257812 C8.72601563 186.74835449 9.32800781 187.60413086 9.94824219 188.48583984 C12.72101964 192.45167089 15.42722337 196.46166024 18.13916016 200.46923828 C21.02843066 204.73657847 23.93225579 208.99392333 26.8359375 213.25146484 C28.70172655 215.98756805 30.5654177 218.72508753 32.42871094 221.46289062 C59.1330989 260.8245686 59.1330989 260.8245686 89.92480469 296.98242188 C91.87402344 299.24023438 91.87402344 299.24023438 91.87402344 301.24023438 C84.59689289 301.81369686 77.31943908 302.38291394 70.04174805 302.94921875 C67.56738818 303.14225736 65.09310317 303.33625798 62.61889648 303.53125 C59.05699729 303.8117934 55.49484086 304.08884536 51.93261719 304.36523438 C50.83130966 304.45272949 49.73000214 304.54022461 48.59532166 304.63037109 C35.9462011 305.60387477 27.39127125 305.46126324 17.13278198 297.26513672 C13.5816838 294.08169462 10.89156749 290.47336728 8.15917969 286.58398438 C7.56597427 285.75894409 6.97276886 284.93390381 6.36158752 284.0838623 C0.37946933 275.69370042 -5.29707284 267.100844 -10.91552734 258.46459961 C-14.04722378 253.65234396 -17.19822164 248.8527511 -20.34863281 244.05273438 C-21.31713669 242.57625427 -21.31713669 242.57625427 -22.3052063 241.06994629 C-28.98789841 230.89838605 -35.80062512 220.81636262 -42.62597656 210.74023438 C-52.26221292 196.50162633 -61.83090098 182.22036318 -71.30541992 167.87353516 C-72.59123471 165.92666087 -73.87816184 163.98052072 -75.16625977 162.03515625 C-76.95069893 159.33894105 -78.73049729 156.63972561 -80.50878906 153.93945312 C-81.03550201 153.14460007 -81.56221497 152.34974701 -82.10488892 151.5308075 C-86.59312383 144.69275914 -89.93363295 139.586017 -89.12597656 131.24023438 C-87.38344312 128.00410083 -86.65411712 127.41628123 -83.12597656 126.24023438 C-80.7531193 126.1417283 -78.37757818 126.10471132 -76.00268555 126.09838867 C-75.2801358 126.09491425 -74.55758606 126.09143982 -73.81314087 126.08786011 C-72.24172675 126.08050621 -70.67030227 126.07515887 -69.09887505 126.07156944 C-66.59423968 126.06437316 -64.08979678 126.04867564 -61.58522034 126.03022766 C-54.46252359 125.97796086 -47.33992465 125.92997137 -40.21704102 125.91430664 C-35.85612783 125.90408944 -31.49568944 125.87441127 -27.1349659 125.83298683 C-25.48918351 125.82084847 -23.84333345 125.81552336 -22.19750786 125.81778526 C-1.15564358 125.83955242 22.16184148 121.84436123 38.19433594 107.10742188 C44.35992454 100.57781328 47.98411696 94.37406433 48.43652344 85.30273438 C48.11830755 77.23442181 45.14142732 71.05237649 39.31152344 65.49023438 C18.76666067 49.19999804 -10.85097673 49.03988439 -35.67285156 51.88867188 C-84.42839661 58.62139738 -133.61474355 79.50613326 -169.34667969 113.83837891 C-172.92238859 117.24023438 -172.92238859 117.24023438 -175.12597656 117.24023438 C-175.38507813 117.83191406 -175.64417969 118.42359375 -175.91113281 119.03320312 C-177.21812987 121.40765115 -178.5598683 122.74073937 -180.56347656 124.55273438 C-196.70022556 140.36791772 -211.82374433 165.15500006 -212.37597656 188.30273438 C-212.13277908 201.50172505 -206.99248711 214.95644364 -197.88769531 224.63476562 C-177.98485591 242.77238645 -151.77471184 247.68579105 -125.62597656 247.55273438 C-124.88030426 247.55091156 -124.13463196 247.54908875 -123.36636353 247.54721069 C-102.9159062 247.46332679 -82.60926924 244.73466527 -63.12597656 238.24023438 C-57.08642467 237.73693838 -52.95817616 238.31285559 -48.12597656 242.24023438 C-41.73942192 248.53797585 -36.71175553 255.84734351 -31.77709961 263.29003906 C-30.54594883 265.14159473 -29.29655798 266.97994092 -28.04589844 268.81835938 C-27.25767032 269.99729966 -26.47051876 271.17696061 -25.68457031 272.35742188 C-24.9761499 273.41558105 -24.26772949 274.47374023 -23.5378418 275.56396484 C-23.07192627 276.44713379 -22.60601074 277.33030273 -22.12597656 278.24023438 C-22.45597656 279.23023438 -22.78597656 280.22023438 -23.12597656 281.24023438 C-25.4855957 282.37182617 -25.4855957 282.37182617 -28.66113281 283.43945312 C-29.84682861 283.84019043 -31.03252441 284.24092773 -32.25415039 284.65380859 C-33.56512868 285.07988015 -34.87658551 285.50448161 -36.18847656 285.92773438 C-36.85301849 286.14544495 -37.51756042 286.36315552 -38.20223999 286.58746338 C-95.79124672 305.40069053 -166.94449069 317.77777552 -223.50488281 289.07226562 C-231.34005994 284.91208237 -238.5177158 280.19362245 -245.12597656 274.24023438 C-246.18365234 273.304375 -246.18365234 273.304375 -247.26269531 272.34960938 C-252.65084187 267.30014632 -256.45906248 261.62138389 -260.12597656 255.24023438 C-260.59003906 254.44875 -261.05410156 253.65726563 -261.53222656 252.84179688 C-273.231052 231.37017213 -272.17469208 205.20337785 -265.79003906 182.31835938 C-253.95463417 142.63759771 -225.33544714 107.72432737 -194.12597656 81.24023438 C-192.78019531 80.06074219 -192.78019531 80.06074219 -191.40722656 78.85742188 C-144.59528705 38.10287295 -85.61990384 10.00551577 -24.12597656 1.24023438 C-23.45518066 1.13710938 -22.78438477 1.03398437 -22.09326172 0.92773438 C-14.77214818 -0.06041303 -7.37419663 0.01824543 0 0 Z " fill="#2666DD" transform="translate(494.1259765625,378.759765625)"/>
<path d="M0 0 C168.1630875 -0.47600658 168.1630875 -0.47600658 206 34 C218.55016642 46.49363414 226.11984899 63.57470666 226.4375 81.25 C226.21301271 106.43466825 212.60100113 129.69234889 195 147 C191.4500283 150.16365125 187.78118905 153.11806222 184 156 C183.24460937 156.58265625 182.48921875 157.1653125 181.7109375 157.765625 C157.38705522 175.653291 127.94262416 185.49115628 98 188 C97.04982498 188.08263596 96.09964996 188.16527191 95.12068176 188.25041199 C85.84051556 188.99016829 76.62369513 189.13125287 67.3203125 189.09765625 C65.77090501 189.09578524 64.22149692 189.09436458 62.67208862 189.09336853 C58.64449353 189.08959702 54.61693599 189.07981433 50.58935547 189.06866455 C46.45931506 189.05833331 42.32926843 189.05384612 38.19921875 189.04882812 C30.1327955 189.03818578 22.06640245 189.02117607 14 189 C14.94129551 190.76336873 15.88717017 192.52429357 16.83496094 194.28417969 C17.36120056 195.26505554 17.88744019 196.2459314 18.42962646 197.25653076 C25.4544156 209.5289567 37.59541727 218.80965985 51 223 C84.28545354 230.63710406 120.79706609 214.49665854 150 200 C150.77053711 199.62552734 151.54107422 199.25105469 152.33496094 198.86523438 C174.61476431 187.9887931 195.14511495 173.14640145 213 156 C213.56895996 155.45827148 214.13791992 154.91654297 214.72412109 154.35839844 C237.37921567 132.68723176 259.94451154 102.18884986 261.3359375 69.66796875 C261.36505709 67.84133152 261.37773748 66.01436727 261.375 64.1875 C261.37584595 62.7478186 261.37584595 62.7478186 261.37670898 61.27905273 C261.25636878 53.47798239 259.72038911 47.30966342 257 40 C256.4569454 37.61299137 256.16687575 35.44751102 256 33 C256.33 32.67 256.66 32.34 257 32 C261.11141429 32.14683622 263.32196854 32.38140637 266.40625 35.1953125 C279.8869758 54.05826838 286.4423851 74.5840027 282.78515625 97.9296875 C278.23410548 123.22407619 264.73686524 146.13657898 249 166 C248.57122559 166.54591797 248.14245117 167.09183594 247.70068359 167.65429688 C243.54642336 172.92733148 239.29088549 177.9471532 234.41015625 182.5625 C232.76534695 184.14973012 232.76534695 184.14973012 231 187 C230.34 187 229.68 187 229 187 C228.67 187.99 228.34 188.98 228 190 C226.57421875 191.4375 226.57421875 191.4375 224.6875 193 C221.18211506 195.95941348 217.83359729 199.03581798 214.5 202.1875 C207.44961016 208.73074069 199.78229238 214.36604853 192 220 C191.32308105 220.4964502 190.64616211 220.99290039 189.94873047 221.50439453 C178.71537174 229.73575809 167.06018197 237.04453363 155 244 C154.19723633 244.46792969 153.39447266 244.93585938 152.56738281 245.41796875 C117.20894457 265.93477078 69.61744126 287.45607484 27.90405273 276.9074707 C-2.44706133 268.19979549 -18.09673345 238.7914478 -34 214 C-34.64533691 212.99759277 -35.29067383 211.99518555 -35.95556641 210.96240234 C-37.84948941 208.01921451 -39.73844498 205.07291513 -41.625 202.125 C-42.19259033 201.24062256 -42.76018066 200.35624512 -43.3449707 199.44506836 C-46.76915494 194.06772082 -49.9742977 188.61139511 -53 183 C-51.31316505 182.29008436 -49.62546995 181.58221271 -47.9375 180.875 C-46.83921875 180.41480469 -45.7409375 179.95460938 -44.609375 179.48046875 C-42.21394761 178.49792873 -39.80749035 177.54183883 -37.390625 176.61328125 C-22.36232735 170.8270696 -6.79271983 163.73999776 4.20013428 151.56283569 C9.08807856 146.42698772 12.80071116 143.36377317 20.18945312 142.89648438 C22.90087932 142.91153244 25.57576107 142.97821359 28.28125 143.09375 C29.74451862 143.11757986 31.20787324 143.13656117 32.67126465 143.15100098 C36.50609123 143.20016193 40.33694221 143.30749398 44.17004395 143.42993164 C50.25935346 143.61305438 56.351379 143.70272444 62.4424839 143.80550194 C63.91555599 143.83095275 65.38859964 143.85810826 66.86160851 143.88698769 C96.06675183 144.45060321 125.09890868 139.38243406 148 120 C155.283216 112.59033928 160.43307412 103.22830503 161.25 92.8125 C160.65046001 83.66951518 157.65575264 76.38728531 151 70 C132.35823616 55.37853953 110.24055302 52.97181604 87.2421875 52.68359375 C85.8439988 52.66297302 84.44581562 52.64197541 83.04763794 52.62062073 C79.40145385 52.56592772 75.75521856 52.51629014 72.10894775 52.46777344 C68.37466987 52.41716821 64.64046458 52.36168771 60.90625 52.30664062 C53.60422848 52.1997065 46.3021458 52.09812315 39 52 C38.30729004 50.37626465 38.30729004 50.37626465 37.60058594 48.71972656 C36.97874775 47.27659266 36.35666437 45.8335644 35.734375 44.390625 C35.28070557 43.32448975 35.28070557 43.32448975 34.81787109 42.23681641 C28.49282529 27.62377955 17.99093324 15.96236553 5.97265625 5.71875 C3.88403011 3.89895692 1.95000439 1.96649331 0 0 Z " fill="#2666DD" transform="translate(582,380)"/>
<path d="M0 0 C0.66 0.33 1.32 0.66 2 1 C2.20828223 3.13935603 2.31486612 5.28887029 2.375 7.4375 C3.01521714 17.94773143 6.00681953 25.90769028 14 33 C19.19780061 36.79923986 24.23972038 37.49398128 30.58203125 37.7265625 C33 38 33 38 36 40 C34.9378125 40.21914063 33.875625 40.43828125 32.78125 40.6640625 C21.53010154 43.1300312 13.89579348 46.23095924 7 56 C3.03433683 62.47099767 2.48406207 68.5490177 2.2734375 76.05859375 C2 79 2 79 0 81 C-0.08636719 79.88882813 -0.17273438 78.77765625 -0.26171875 77.6328125 C-1.29164993 66.11572039 -3.13883718 56.59661499 -12.07421875 48.46484375 C-18.79916855 43.34951683 -25.88768461 42.35791336 -34.15625 41.4921875 C-35.0946875 41.32976562 -36.033125 41.16734375 -37 41 C-37.33 40.34 -37.66 39.68 -38 39 C-34.59993059 37.98162172 -31.41170544 37.86931054 -27.875 37.75 C-20.26512106 37.1698747 -14.31950756 35.4058888 -8.8984375 29.84375 C-3.38384199 23.03560739 -1.70105137 17.26624659 -0.875 8.6875 C-0.78863281 7.85154297 -0.70226562 7.01558594 -0.61328125 6.15429688 C-0.40234458 4.1035237 -0.20028354 2.05184097 0 0 Z " fill="#2666DD" transform="translate(818,342)"/>
</svg>
